<svg width="82" height="24" viewBox="0 0 82 24" fill="none" xmlns="http://www.w3.org/2000/svg">
<g clip-path="url(#clip0)">
<path fill-rule="evenodd" clip-rule="evenodd" d="M38.9411 6.30387V12.0471L40.5846 11.476V13.8123L38.9411 14.3833V18.9173C38.9411 20.5689 38.5043 22.3505 38.1732 23.4658H36.0096C36.2798 22.6532 36.8791 20.6461 36.8791 18.9173V15.0996L35.252 15.665V13.3288L36.8791 12.7634V6.30387H35.252V4.21347H36.8791V0.479492H38.9411V4.21347H40.5826V6.30387H38.9411ZM66.2037 0.530273H67.7577H73.8096H75.3676L75.7028 0.922351C77.4702 3.02697 80.0868 5.15597 81.6267 6.23266V8.7964C80.6698 8.18289 76.5642 5.46476 74.3519 2.64099H73.8096H67.7577H67.2215C65.0092 5.46476 60.9036 8.18289 59.9447 8.7964V6.23266C61.4866 5.15597 64.1032 3.02697 65.8706 0.922351L66.2037 0.530273ZM63.2396 6.91531H78.3255V9.00165H71.8796V12.701H80.6902V14.7873H71.8796V21.3126H75.0764L76.3551 16.504H78.5471L77.2591 21.3126H81.3301V23.3989H60.2372V21.3126H64.3081L63.0183 16.504H65.2123L66.491 21.3126H69.6876V14.7873H60.8771V12.701H69.6876V9.00165H63.2396V6.91531ZM56.9218 0.479492H56.9239V2.56989H56.9218V5.4953H56.9239V7.5857H43.8797V18.9051C43.8871 20.4398 43.7167 21.9703 43.3718 23.4658H41.2083C41.6018 21.9779 41.7952 20.4441 41.7832 18.9051V0.479492H43.3596H43.8797H54.8314H56.9218ZM54.8314 5.4953H43.8797V2.56989H54.8314V5.4953ZM50.0553 8.99554H52.0076V13.9444H54.5389V9.69443H56.4912V15.7462H55.2398V15.7463H52.0076V21.6517H54.8314V17.286H56.7837V23.4556H54.8314V23.4536H47.258V23.4556H45.3058V17.286H47.258V21.6517H50.0553V15.7463H46.5674V15.7462H45.6227V9.69443H47.5749V13.9444H50.0553V8.99554Z" fill="white"/>
<path fill-rule="evenodd" clip-rule="evenodd" d="M15.0737 5.80396H15.0757L18.706 2.91722L15.0757 0.00406298L15.0717 0L11.4475 2.91112L15.0717 5.80193L15.0737 5.80396ZM15.0757 14.9111L15.0778 14.9091L24.4429 7.52057L21.9036 5.48096L15.0778 10.8664L15.0757 10.8685L15.0737 10.8705L8.2479 5.48502L5.71057 7.52463L15.0737 14.9132L15.0757 14.9111ZM15.0716 19.9614L15.0757 19.9593L27.614 10.066L30.1534 12.1056L24.449 16.6053L15.0757 24L0.243779 12.3047L0 12.1117L2.53936 10.0721L15.0716 19.9614Z" fill="white"/>
</g>
<defs>
<clipPath id="clip0">
<rect width="81.6211" height="24" fill="white"/>
</clipPath>
</defs>
</svg>
