<svg class="icon-day" width="24" height="24" viewBox="0 0 24 24" fill="none" xmlns="http://www.w3.org/2000/svg"><path fill="#fff" fill-rule="evenodd" clip-rule="evenodd" d="M13.0912 0.545455C13.0912 0.244208 12.847 0 12.5458 0H11.4549C11.1536 0 10.9094 0.244208 10.9094 0.545455V2.18182C10.9094 2.48306 11.1536 2.72727 11.4549 2.72727H12.5458C12.847 2.72727 13.0912 2.48306 13.0912 2.18182V0.545455ZM20.8698 3.90013L20.0985 3.12874C19.8854 2.91572 19.5401 2.91572 19.3271 3.12874L18.17 4.28582C17.957 4.49883 17.957 4.8442 18.17 5.05721L18.9414 5.8286C19.1544 6.04161 19.4998 6.04161 19.7128 5.8286L20.8698 4.67152C21.0829 4.4585 21.0829 4.11314 20.8698 3.90013ZM19.6367 11.9993C19.6367 7.78187 16.2178 4.36295 12.0003 4.36295C7.78289 4.36295 4.36398 7.78187 4.36398 11.9993C4.36398 16.2168 7.78289 19.6357 12.0003 19.6357C16.2178 19.6357 19.6367 16.2168 19.6367 11.9993ZM5.8286 18.9424L5.05721 18.171C4.8442 17.958 4.49883 17.958 4.28582 18.171L3.12874 19.3281C2.91572 19.5411 2.91572 19.8865 3.12874 20.0995L3.90013 20.8709C4.11314 21.0839 4.4585 21.0839 4.67152 20.8709L5.8286 19.7138C6.04161 19.5008 6.04161 19.1554 5.8286 18.9424ZM13.0912 21.8182C13.0912 21.5169 12.847 21.2727 12.5458 21.2727H11.4549C11.1536 21.2727 10.9094 21.5169 10.9094 21.8182V23.4545C10.9094 23.7558 11.1536 24 11.4549 24H12.5458C12.847 24 13.0912 23.7558 13.0912 23.4545V21.8182ZM19.7128 18.171L20.8698 19.3281C21.0829 19.5411 21.0829 19.8865 20.8698 20.0995L20.0985 20.8709C19.8854 21.0839 19.5401 21.0839 19.3271 20.8709L18.17 19.7138C17.957 19.5008 17.957 19.1554 18.17 18.9424L18.9414 18.171C19.1544 17.958 19.4998 17.958 19.7128 18.171ZM12 6.54545C8.98754 6.54545 6.54545 8.98754 6.54545 12C6.54545 15.0125 8.98754 17.4545 12 17.4545C15.0125 17.4545 17.4545 15.0125 17.4545 12C17.4545 8.98754 15.0125 6.54545 12 6.54545ZM2.72727 11.4539C2.72727 11.1526 2.48306 10.9084 2.18182 10.9084H0.545455C0.244208 10.9084 0 11.1526 0 11.4539V12.5448C0 12.846 0.244208 13.0902 0.545455 13.0902H2.18182C2.48306 13.0902 2.72727 12.846 2.72727 12.5448V11.4539ZM23.4545 10.9084C23.7558 10.9084 24 11.1526 24 11.4539V12.5448C24 12.846 23.7558 13.0902 23.4545 13.0902H21.8182C21.5169 13.0902 21.2727 12.846 21.2727 12.5448V11.4539C21.2727 11.1526 21.5169 10.9084 21.8182 10.9084H23.4545ZM4.67152 3.12874L5.8286 4.28582C6.04161 4.49883 6.04161 4.8442 5.8286 5.05721L5.05721 5.8286C4.8442 6.04161 4.49883 6.04161 4.28582 5.8286L3.12874 4.67152C2.91572 4.4585 2.91572 4.11314 3.12874 3.90013L3.90013 3.12874C4.11314 2.91572 4.4585 2.91572 4.67152 3.12874Z"></path></svg>
