<svg class="icon-night" width="24" height="24" viewBox="0 0 24 24" fill="none" xmlns="http://www.w3.org/2000/svg"><path fill="#fff" fill-rule="evenodd" clip-rule="evenodd" d="M14.9409 2.18842C14.3059 2.06344 13.6567 2 13 2C7.47715 2 3 6.47715 3 12C3 17.5228 7.47715 22 13 22C16.2196 22 19.1853 20.4667 21.0575 17.9232L21.9921 16.6536L20.4453 16.3492C16.725 15.617 14 12.3391 14 8.5C14 6.7699 14.5494 5.12552 15.553 3.76254L16.488 2.49289L14.9409 2.18842ZM5 12C5 7.58172 8.58172 4 13 4L13.0673 4.00028C12.3718 5.37812 12 6.91167 12 8.5C12 12.728 14.6429 16.4105 18.4539 17.8535C16.9963 19.2134 15.0643 20 13 20C8.58172 20 5 16.4183 5 12Z"></path></svg>
