<svg width="24" height="24" viewBox="0 0 24 24" fill="none" xmlns="http://www.w3.org/2000/svg"><path fill="#fff" fill-rule="evenodd" clip-rule="evenodd" d="M14.3833 1.35473C13.6065 1.17985 12.8085 1.09082 11.9996 1.09082C11.1905 1.09082 10.3923 1.17989 9.61537 1.35486L9.16707 1.45581L7.76974 4.64246L4.32802 4.26621L4.01689 4.60509C2.92751 5.79165 2.11023 7.20692 1.63115 8.75255L1.49609 9.18826L3.54424 11.9999L1.76468 14.4429L1.49609 14.8116L1.63115 15.2473C2.11023 16.7929 2.92751 18.2082 4.01689 19.3947L4.32802 19.7336L7.76974 19.3574L8.98253 22.1232L9.16707 22.544L9.61537 22.645C10.3923 22.8199 11.1905 22.909 11.9996 22.909C12.8085 22.909 13.6065 22.82 14.3833 22.6451L14.8315 22.5442L16.2294 19.3574L19.6712 19.7336L19.9823 19.3947C21.0716 18.2083 21.8888 16.7932 22.3679 15.2478L22.5029 14.8122L20.4549 11.9999L22.2344 9.55637L22.5029 9.18767L22.3679 8.75201C21.8888 7.20658 21.0716 5.79151 19.9823 4.60509L19.6712 4.26621L16.2294 4.64246L14.8315 1.45566L14.3833 1.35473ZM10.4581 3.04177C10.9636 2.95445 11.4789 2.91016 12.0003 2.91016C12.5215 2.91016 13.0367 2.95443 13.542 3.0417L14.6624 5.59586C14.9235 6.19109 15.5407 6.54798 16.1868 6.47736L18.941 6.17627C19.6062 6.97692 20.1307 7.88669 20.4887 8.86707L18.8444 11.125C18.4641 11.6471 18.4641 12.355 18.8444 12.8771L20.4887 15.1351C20.1307 16.1154 19.6062 17.0252 18.941 17.8259L16.1869 17.5248C15.5407 17.4541 14.9235 17.811 14.6624 18.4063L13.542 20.9604C13.0367 21.0477 12.5215 21.092 12.0003 21.092C11.4789 21.092 10.9636 21.0477 10.4581 20.9604L9.33823 18.4064C9.07707 17.811 8.45987 17.4541 7.81375 17.5248L5.05957 17.8259C4.39429 17.0251 3.86976 16.1152 3.51172 15.1346L5.15616 12.8772C5.53649 12.355 5.53649 11.6471 5.15621 11.125L3.51172 8.86748C3.86976 7.88694 4.39429 6.97703 5.05957 6.17627L7.81373 6.47736C8.45987 6.54798 9.07707 6.19109 9.33817 5.59587L10.4581 3.04177ZM12.0003 7.45508C14.5021 7.45508 16.5284 9.49112 16.5284 12.0005C16.5284 14.5099 14.5021 16.546 12.0003 16.546C9.49851 16.546 7.47217 14.5099 7.47217 12.0005C7.47217 9.49112 9.49851 7.45508 12.0003 7.45508ZM9.29004 12.0007C9.29004 10.4935 10.5043 9.27344 12 9.27344C13.4957 9.27344 14.71 10.4935 14.71 12.0007C14.71 13.5079 13.4957 14.728 12 14.728C10.5043 14.728 9.29004 13.5079 9.29004 12.0007Z"></path></svg>
