<svg width="15" height="15" viewBox="0 0 12 12" fill="none" xmlns="http://www.w3.org/2000/svg"><path fill="#86909C" fill-rule="evenodd" clip-rule="evenodd" d="M6 0.75C8.8995 0.75 11.25 3.10051 11.25 6C11.25 8.8995 8.8995 11.25 6 11.25H1.275C0.98505 11.25 0.75 11.0149 0.75 10.725V6C0.75 3.10051 3.10051 0.75 6 0.75ZM1.75 10.25H6C8.34721 10.25 10.25 8.34721 10.25 6C10.25 3.65279 8.34721 1.75 6 1.75C3.65279 1.75 1.75 3.65279 1.75 6V10.25ZM3.5 5.25C3.5 5.11193 3.61193 5 3.75 5H8.25C8.38807 5 8.5 5.11193 8.5 5.25V5.75C8.5 5.88807 8.38807 6 8.25 6H3.75C3.61193 6 3.5 5.88807 3.5 5.75V5.25ZM3.5 7.25C3.5 7.11193 3.61193 7 3.75 7H6.25C6.38807 7 6.5 7.11193 6.5 7.25V7.75C6.5 7.88807 6.38807 8 6.25 8H3.75C3.61193 8 3.5 7.88807 3.5 7.75V7.25Z"></path></svg>
