<svg width="15" height="15" viewBox="0 0 12 12" fill="none" xmlns="http://www.w3.org/2000/svg"><path fill="#86909C" fill-rule="evenodd" clip-rule="evenodd" d="M1.75 11V4H0.75V11H1.75Z"></path><path fill="#86909C" fill-rule="evenodd" clip-rule="evenodd" d="M7.74904 3.99911H9.64365C11.1356 3.99911 11.4783 5.31604 11.1356 6.30283L9.64365 10.2304C9.51758 10.6872 9.09772 11.0041 8.61859 11.0041H2.49609L2.49609 3.99911H3.51958L5.74461 0.833872C5.8851 0.610348 6.26435 0.43899 6.66856 0.623065C7.27487 0.899177 8.25069 1.50191 8.25069 2.50057C8.25069 2.8772 8.08347 3.37672 7.74904 3.99911ZM9.64365 4.99911H6.0765L6.86816 3.52579C7.13141 3.03585 7.25069 2.67954 7.25069 2.50057C7.25069 2.21042 6.93982 1.88224 6.41914 1.61319L4.03897 4.99911H3.49609V10.0041H8.61859C8.6496 10.0041 8.67374 9.98589 8.67968 9.96436L8.69216 9.91913L10.1951 5.96264C10.3927 5.38057 10.1956 4.99911 9.64365 4.99911Z"></path></svg>
